<svg width="28" height="20" viewBox="0 0 28 20" fill="none" xmlns="http://www.w3.org/2000/svg">
<path fill-rule="evenodd" clip-rule="evenodd" d="M15.558 0.325316C15.0629 0.759314 15.0629 1.4605 15.5614 1.89155L21.2194 6.7969L21.3501 6.89599C21.8497 7.22618 22.5629 7.19178 23.0167 6.79395C23.2642 6.57695 23.388 6.295 23.388 6.01305C23.388 5.72815 23.2642 5.44472 23.0133 5.22772L17.357 0.322364L17.2263 0.223612C16.7264 -0.105442 16.0119 -0.0711622 15.558 0.325316ZM1.12405 8.90127C0.497266 8.96963 0.0118408 9.43565 0.0118408 9.99978C0.0118408 10.6109 0.581541 11.1069 1.28349 11.1069H23.6374L15.5616 18.1085L15.4474 18.2215C15.0665 18.6545 15.1044 19.2769 15.5582 19.6747C16.0533 20.1072 16.8587 20.1087 17.3555 19.6776L27.6135 10.7836L27.7266 10.6723C27.8987 10.4775 27.9882 10.2397 27.9882 9.99978C27.9882 9.85659 27.956 9.7134 27.8915 9.57759C27.6948 9.16278 27.232 8.89264 26.7165 8.89264H1.28349L1.12405 8.90127Z" fill="#474747"/>
</svg>
