<svg width="162" height="49" viewBox="0 0 162 49" fill="none" xmlns="http://www.w3.org/2000/svg">
<g clip-path="url(#clip0_51_1440)">
<path d="M155.438 47.9102H6.09225C2.80664 47.9102 0.118408 45.2219 0.118408 41.9363V6.09324C0.118408 2.80762 2.80664 0.119396 6.09225 0.119396H155.438C158.724 0.119396 161.412 2.80762 161.412 6.09324V41.9363C161.412 45.2219 158.724 47.9102 155.438 47.9102Z" fill="black"/>
<path d="M155.438 0.119396H6.09225C2.80664 0.119396 0.118408 2.80762 0.118408 6.09324V41.9363C0.118408 45.2219 2.80664 47.9102 6.09225 47.9102H155.438C158.724 47.9102 161.412 45.2219 161.412 41.9363V6.09324C161.412 2.80762 158.724 0.119396 155.438 0.119396ZM155.438 1.07521C158.205 1.07521 160.456 3.32663 160.456 6.09324V41.9363C160.456 44.7034 158.205 46.9548 155.438 46.9548H6.09225C3.32565 46.9548 1.07422 44.7034 1.07422 41.9363V6.09324C1.07422 3.32663 3.32565 1.07521 6.09225 1.07521H155.438Z" fill="#A6A6A6"/>
<path d="M56.7724 12.3579C56.7724 13.3589 56.476 14.1561 55.8823 14.7507C55.208 15.4578 54.3291 15.8115 53.2487 15.8115C52.214 15.8115 51.3343 15.4531 50.6109 14.7353C49.8861 14.0179 49.5245 13.1284 49.5245 12.0671C49.5245 11.0053 49.8861 10.1163 50.6109 9.39848C51.3343 8.68114 52.214 8.32223 53.2487 8.32223C53.7621 8.32223 54.2536 8.42259 54.7203 8.62283C55.187 8.82356 55.5613 9.08999 55.8413 9.42369L55.2112 10.0542C54.7367 9.48713 54.0832 9.20385 53.2487 9.20385C52.4941 9.20385 51.8416 9.46897 51.2909 9.99957C50.7401 10.5308 50.4649 11.2195 50.4649 12.0671C50.4649 12.9147 50.7401 13.6035 51.2909 14.1347C51.8416 14.6653 52.4941 14.9304 53.2487 14.9304C54.0492 14.9304 54.7166 14.6638 55.2509 14.13C55.5977 13.7822 55.7983 13.2988 55.852 12.678H53.2487V11.8169H56.7225C56.7561 12.0042 56.7724 12.1838 56.7724 12.3579Z" fill="white"/>
<path d="M56.7732 12.3578H56.6537C56.6528 13.336 56.3671 14.0957 55.7986 14.6661L55.7973 14.6671L55.7968 14.668C55.1439 15.3507 54.3047 15.6905 53.2495 15.692C52.2424 15.6905 51.3995 15.347 50.6956 14.6507C49.9933 13.953 49.646 13.1012 49.6447 12.067C49.646 11.0324 49.9933 10.1811 50.6956 9.48381C51.3995 8.78702 52.2424 8.44305 53.2495 8.44162C53.7474 8.44162 54.2216 8.53875 54.6739 8.73242C55.1266 8.92753 55.4841 9.18321 55.7506 9.50066L55.8421 9.4236L55.7576 9.33913L55.1275 9.97009L55.212 10.0541L55.304 9.97761C54.8073 9.3825 54.1102 9.08249 53.2495 9.08428C52.4669 9.08333 51.7785 9.3629 51.209 9.91369C50.6341 10.4663 50.3452 11.1938 50.3462 12.067C50.3452 12.9403 50.6341 13.6678 51.209 14.2204C51.7785 14.7711 52.4669 15.0507 53.2495 15.0498C54.0765 15.0512 54.7813 14.7707 55.3361 14.2144C55.7067 13.8428 55.9168 13.3281 55.9719 12.6882L55.983 12.5584H53.3689V11.9363H56.7232V11.8168L56.6056 11.8379C56.6383 12.019 56.6537 12.1912 56.6537 12.3578H56.7732H56.8927C56.8927 12.1762 56.8758 11.9896 56.8408 11.7955L56.8231 11.6974H53.13V12.6779V12.7974H55.8527V12.6779L55.7337 12.6676C55.681 13.2688 55.4896 13.7215 55.1672 14.0454C54.6538 14.5569 54.0238 14.8094 53.2495 14.8108C52.5228 14.8099 51.9063 14.5597 51.3747 14.0487C50.8483 13.5395 50.5864 12.8894 50.5851 12.067C50.5864 11.2447 50.8483 10.5946 51.3747 10.0854C51.9063 9.57438 52.5228 9.32419 53.2495 9.32324C54.0574 9.32515 54.6674 9.59206 55.1206 10.1311L55.2046 10.231L55.9266 9.50807L56.004 9.43065L55.9335 9.34701C55.6399 8.99707 55.2489 8.71928 54.7681 8.51306C54.2865 8.30625 53.7783 8.20266 53.2495 8.20266C52.1873 8.20171 51.2707 8.57507 50.5272 9.31392C49.7809 10.0513 49.4048 10.9782 49.4058 12.067C49.4048 13.1553 49.7809 14.0827 50.5276 14.8206C51.2707 15.559 52.1873 15.9319 53.2495 15.9309C54.3556 15.9319 55.2731 15.5645 55.9695 14.8332L55.8831 14.7506L55.9675 14.8351C56.5864 14.2167 56.8935 13.3813 56.8927 12.3578H56.7732Z" fill="white"/>
<path d="M62.2796 9.36342H59.0151V11.6363H61.9591V12.4978H59.0151V14.7707H62.2796V15.6514H58.0947V8.48275H62.2796V9.36342Z" fill="white"/>
<path d="M62.2789 9.36333V9.24385H58.8948V11.7557H61.8389V12.3778L58.8948 12.3782V14.8901H62.1594V15.5318H58.2134V8.60214H62.1594V9.36333H62.2789V9.24385V9.36333H62.3984V8.48266V8.36318H57.9745V15.7708H62.3984V14.7706V14.6511H59.1338V12.6172H62.0778V11.6363V11.5168H59.1338V9.4828H62.3984V9.36333H62.2789Z" fill="white"/>
<path d="M66.1635 15.6514H65.2417V9.36342H63.2395V8.48275H68.1657V9.36342H66.1635V15.6514Z" fill="white"/>
<path d="M66.1642 15.6513V15.5318H65.3619V9.24385H63.3597V8.60214H68.0469V9.24385H66.0447V15.6513H66.1642V15.5318V15.6513H66.2837V9.4828H68.2859V8.48266V8.36318H63.1208V9.36333V9.4828H65.123V15.7708H66.1642H66.2837V15.6513H66.1642Z" fill="white"/>
<path d="M71.7306 15.6514V8.48275H72.6514V15.6514H71.7306Z" fill="white"/>
<path d="M71.7299 15.6513H71.8494V8.60214H72.5312V15.5318H71.7299V15.6513H71.8494H71.7299V15.7708H72.6507H72.7702V8.36318H71.7299H71.6104V15.7708H71.7299V15.6513Z" fill="white"/>
<path d="M76.7372 15.6514H75.8155V9.36342H73.8134V8.48275H78.7394V9.36342H76.7372V15.6514Z" fill="white"/>
<path d="M76.7365 15.6513V15.5318H75.9343V9.24385H73.9322V8.60214H78.6193V9.24385H76.6171V15.6513H76.7365V15.5318V15.6513H76.856V9.4828H78.8582V8.48266V8.36318H73.6932V9.36333V9.4828H75.6953V15.7708H76.7365H76.856V15.6513H76.7365Z" fill="white"/>
<path d="M83.488 14.1249C84.0186 14.662 84.6678 14.9304 85.4356 14.9304C86.2034 14.9304 86.8529 14.662 87.3827 14.1249C87.9138 13.5877 88.1799 12.9011 88.1799 12.0671C88.1799 11.2332 87.9138 10.5465 87.3827 10.0094C86.8529 9.4722 86.2034 9.20385 85.4356 9.20385C84.6678 9.20385 84.0186 9.4722 83.488 10.0094C82.9582 10.5465 82.6923 11.2332 82.6923 12.0671C82.6923 12.9011 82.9582 13.5877 83.488 14.1249ZM88.0641 14.725C87.3593 15.4497 86.4828 15.8115 85.4356 15.8115C84.3873 15.8115 83.5113 15.4497 82.8081 14.725C82.1028 14.0011 81.7519 13.1149 81.7519 12.0671C81.7519 11.0193 82.1028 10.133 82.8081 9.40923C83.5113 8.68436 84.3873 8.32223 85.4356 8.32223C86.4773 8.32223 87.3514 8.68628 88.0594 9.41389C88.7665 10.1415 89.1203 11.0259 89.1203 12.0671C89.1203 13.1149 88.7673 14.0011 88.0641 14.725Z" fill="white"/>
<path d="M83.4888 14.1248L83.4038 14.2088C83.9541 14.7674 84.6406 15.0512 85.4364 15.0498C86.2316 15.0512 86.9191 14.7674 87.4684 14.2088C88.0223 13.6496 88.3009 12.9262 88.3001 12.067C88.3009 11.2079 88.0223 10.4844 87.4684 9.92528C86.9191 9.36661 86.2316 9.08285 85.4364 9.08428C84.6406 9.08285 83.9541 9.36661 83.4038 9.92528C82.8512 10.4844 82.5721 11.2079 82.5736 12.067C82.5721 12.9262 82.8512 13.6496 83.4038 14.2088L83.4888 14.1248L83.5737 14.0408C83.0669 13.525 82.8135 12.8762 82.8125 12.067C82.8135 11.2578 83.0669 10.609 83.5737 10.0933C84.0852 9.5776 84.6961 9.32467 85.4364 9.32324C86.176 9.32467 86.7884 9.5776 87.2985 10.0933C87.8063 10.609 88.0597 11.2578 88.0607 12.067C88.0597 12.8762 87.8063 13.525 87.2985 14.0408C86.7884 14.5564 86.176 14.8094 85.4364 14.8108C84.6961 14.8094 84.0852 14.5564 83.5737 14.0408L83.4888 14.1248ZM88.0649 14.7249L87.9794 14.6419C87.2944 15.3438 86.4566 15.6905 85.4364 15.692C84.4157 15.6905 83.5779 15.3438 82.8941 14.6419L82.8909 14.6382L82.8941 14.6419C82.2105 13.9376 81.8731 13.0882 81.8721 12.067C81.8731 11.0459 82.2105 10.1965 82.8941 9.49218C83.5779 8.79025 84.4157 8.44305 85.4364 8.44162C86.45 8.44305 87.2859 8.79168 87.9748 9.49731C88.6608 10.2049 89.0001 11.0529 89.0016 12.067C89.0001 13.0882 88.6618 13.9376 87.9794 14.6419L88.0649 14.7249L88.1508 14.8079C88.875 14.0641 89.2414 13.1414 89.2405 12.067C89.2414 10.9988 88.8736 10.078 88.146 9.33076C87.418 8.58069 86.506 8.20135 85.4364 8.20266C84.3611 8.20135 83.4464 8.57889 82.7229 9.3261V9.32562C81.9972 10.07 81.6322 10.9927 81.6332 12.067C81.6322 13.1414 81.9972 14.0641 82.7229 14.8084L82.7261 14.8118L82.7229 14.8079C83.4464 15.5552 84.3611 15.9319 85.4364 15.9309C86.5112 15.9319 87.4259 15.5552 88.1508 14.8079L88.0649 14.7249Z" fill="white"/>
<path d="M90.413 15.6514V8.48275H91.5341L95.018 14.0595H95.0577L95.018 12.6779V8.48275H95.9398V15.6514H94.9784L91.3333 9.80441H91.2937L91.3333 11.1864V15.6514H90.413Z" fill="white"/>
<path d="M90.4138 15.6513H90.5333V8.60214H91.4685L94.9525 14.1788H95.0585H95.1812L95.1383 12.6761V8.60214H95.8211V15.5318H95.0454L91.4004 9.68484H91.2944H91.1717L91.2146 11.1882V15.5318H90.4138V15.6513H90.5333H90.4138V15.7708H91.3341H91.4536V11.1844L91.4139 9.80109L91.2944 9.80432V9.92379H91.3341V9.80432L91.2328 9.86788L94.9128 15.7708H95.9405H96.06V8.36318H95.0188H94.8993V12.6793L94.939 14.0626L95.0585 14.0594V13.9399H95.0188V14.0594L95.1201 13.9959L91.601 8.36318H90.4138H90.2943V15.7708H90.4138V15.6513Z" fill="white"/>
<path d="M127.882 35.9624H130.111V21.0264H127.882V35.9624ZM147.962 26.4066L145.407 32.8822H145.33L142.678 26.4066H140.277L144.254 35.4574L141.986 40.4918H144.312L150.442 26.4066H147.962ZM135.319 34.2659C134.588 34.2659 133.57 33.9009 133.57 32.9975C133.57 31.8446 134.839 31.4027 135.934 31.4027C136.914 31.4027 137.374 31.614 137.971 31.9026C137.797 33.2859 136.606 34.2659 135.319 34.2659ZM135.588 26.0799C133.974 26.0799 132.303 26.7911 131.611 28.3668L133.589 29.1928C134.012 28.3668 134.8 28.0975 135.626 28.0975C136.779 28.0975 137.952 28.7896 137.971 30.0194V30.1729C137.567 29.9423 136.703 29.5966 135.646 29.5966C133.513 29.5966 131.341 30.7684 131.341 32.9591C131.341 34.9576 133.09 36.2452 135.049 36.2452C136.549 36.2452 137.374 35.5727 137.894 34.785H137.971V35.9377H140.122V30.2111C140.122 27.5598 138.144 26.0799 135.588 26.0799ZM121.81 28.2248H118.639V23.1051H121.81C123.477 23.1051 124.423 24.4851 124.423 25.6649C124.423 26.8224 123.477 28.2248 121.81 28.2248ZM121.753 21.0264H116.411V35.9624H118.639V30.3036H121.753C124.224 30.3036 126.653 28.5147 126.653 25.6649C126.653 22.8153 124.224 21.0264 121.753 21.0264ZM92.6232 34.2687C91.083 34.2687 89.7935 32.9792 89.7935 31.2081C89.7935 29.4183 91.083 28.1092 92.6232 28.1092C94.1437 28.1092 95.3371 29.4183 95.3371 31.2081C95.3371 32.9792 94.1437 34.2687 92.6232 34.2687ZM95.1831 27.243H95.106C94.6058 26.6464 93.6429 26.1075 92.4304 26.1075C89.8896 26.1075 87.5608 28.3401 87.5608 31.2081C87.5608 34.0569 89.8896 36.2704 92.4304 36.2704C93.6429 36.2704 94.6058 35.7313 95.106 35.1158H95.1831V35.8471C95.1831 37.7915 94.1437 38.8308 92.4692 38.8308C91.1026 38.8308 90.2556 37.8488 89.9088 37.0213L87.965 37.8297C88.5232 39.177 90.0054 40.8325 92.4692 40.8325C95.0869 40.8325 97.3004 39.2923 97.3004 35.5391V26.4155H95.1831V27.243ZM98.8401 35.9624H101.073V21.0259H98.8401V35.9624ZM104.365 31.0349C104.307 29.0715 105.885 28.0708 107.021 28.0708C107.907 28.0708 108.657 28.5133 108.907 29.149L104.365 31.0349ZM111.294 29.3412C110.871 28.2052 109.581 26.1075 106.944 26.1075C104.326 26.1075 102.151 28.167 102.151 31.1889C102.151 34.0377 104.307 36.2704 107.194 36.2704C109.523 36.2704 110.871 34.846 111.429 34.0185L109.696 32.8634C109.119 33.7105 108.33 34.2687 107.194 34.2687C106.058 34.2687 105.25 33.7489 104.73 32.729L111.524 29.9185L111.294 29.3412ZM57.161 27.6666V29.8224H62.3194C62.1654 31.0349 61.7612 31.9203 61.1452 32.5363C60.3947 33.2872 59.2205 34.1147 57.161 34.1147C53.9849 34.1147 51.5021 31.5548 51.5021 28.3788C51.5021 25.2029 53.9849 22.6426 57.161 22.6426C58.8741 22.6426 60.125 23.3165 61.049 24.1827L62.5696 22.6622C61.2801 21.4301 59.5668 20.4869 57.161 20.4869C52.8107 20.4869 49.1536 24.0287 49.1536 28.3788C49.1536 32.729 52.8107 36.2704 57.161 36.2704C59.5094 36.2704 61.2801 35.5009 62.6658 34.0569C64.0902 32.6325 64.5331 30.6307 64.5331 29.0141C64.5331 28.5133 64.4947 28.0517 64.4173 27.6666H57.161ZM70.3977 34.2687C68.8575 34.2687 67.5293 32.9983 67.5293 31.1889C67.5293 29.3603 68.8575 28.1092 70.3977 28.1092C71.9373 28.1092 73.2655 29.3603 73.2655 31.1889C73.2655 32.9983 71.9373 34.2687 70.3977 34.2687ZM70.3977 26.1075C67.5871 26.1075 65.2965 28.244 65.2965 31.1889C65.2965 34.1147 67.5871 36.2704 70.3977 36.2704C73.2077 36.2704 75.4983 34.1147 75.4983 31.1889C75.4983 28.244 73.2077 26.1075 70.3977 26.1075ZM81.5248 34.2687C79.9852 34.2687 78.6569 32.9983 78.6569 31.1889C78.6569 29.3603 79.9852 28.1092 81.5248 28.1092C83.0645 28.1092 84.3927 29.3603 84.3927 31.1889C84.3927 32.9983 83.0645 34.2687 81.5248 34.2687ZM81.5248 26.1075C78.7144 26.1075 76.4242 28.244 76.4242 31.1889C76.4242 34.1147 78.7144 36.2704 81.5248 36.2704C84.3349 36.2704 86.6255 34.1147 86.6255 31.1889C86.6255 28.244 84.3349 26.1075 81.5248 26.1075Z" fill="white"/>
<path d="M12.6752 38.8174L12.5864 38.7324C12.2388 38.3646 12.0335 37.7933 12.0335 37.0537V37.2277V10.8042C12.0335 10.8018 12.0335 10.8001 12.0335 10.7981C12.0335 10.8004 12.0335 10.8023 12.0335 10.8047V10.9793C12.0335 10.1783 12.2728 9.57494 12.6738 9.21316L27.4767 24.0157L12.6752 38.8174ZM12.0335 10.7967C12.0335 10.7309 12.0353 10.667 12.0386 10.604C12.0353 10.6665 12.0335 10.7309 12.0335 10.7967ZM12.0386 10.6011C12.0386 10.6003 12.0386 10.5993 12.039 10.5984C12.0386 10.5993 12.0386 10.6003 12.0386 10.6011ZM12.039 10.5928C12.039 10.5923 12.039 10.5918 12.039 10.5913C12.039 10.5918 12.039 10.5923 12.039 10.5928Z" fill="url(#paint0_linear_51_1440)"/>
<path d="M32.4102 29.1265L32.5227 29.0625L38.3686 25.741C38.926 25.4241 39.2974 25.04 39.4827 24.6335C39.2979 25.04 38.9263 25.4246 38.3686 25.7414L32.5227 29.063L32.4102 29.1265ZM32.4116 28.9514L27.4766 24.0156L32.4111 19.0806L38.3686 22.4652C39.1251 22.895 39.5499 23.449 39.6209 24.0151C39.6209 24.0156 39.6209 24.0166 39.6209 24.0174C39.5499 24.5822 39.1251 25.1367 38.3686 25.5664L32.4116 28.9514Z" fill="url(#paint1_linear_51_1440)"/>
<path d="M13.7289 39.3811C13.3154 39.3811 12.9545 39.2467 12.6732 38.9928L12.6737 38.9923C12.955 39.2462 13.3163 39.3811 13.7298 39.3811C13.7657 39.3811 13.8021 39.3801 13.839 39.3784C13.8016 39.3801 13.7647 39.3811 13.7289 39.3811ZM13.7294 39.2061C13.3158 39.2065 12.955 39.0717 12.6737 38.8178V38.8174L27.4752 24.0158L32.4102 28.9516L15.0678 38.8052C14.588 39.0773 14.1334 39.2061 13.7294 39.2061ZM12.6695 38.9896C12.6433 38.9658 12.6176 38.9406 12.5924 38.9144L12.6695 38.9896Z" fill="url(#paint2_linear_51_1440)"/>
<path d="M27.477 24.0156L12.674 9.21304C12.9554 8.95963 13.3157 8.82521 13.7288 8.82521C14.1339 8.82521 14.5889 8.95449 15.0696 9.22702L32.4115 19.0806L27.477 24.0156ZM32.5231 18.9692L15.0696 9.05258C14.5889 8.77993 14.1339 8.65066 13.7288 8.65066C13.7268 8.65066 13.7255 8.65066 13.7236 8.65066C13.726 8.65066 13.7278 8.65066 13.7307 8.65066C14.1349 8.65066 14.5893 8.77945 15.0696 9.0521L32.5231 18.9692Z" fill="url(#paint3_linear_51_1440)"/>
<path d="M13.8402 39.3782C14.2158 39.3567 14.6317 39.2274 15.069 38.9796L32.4099 29.1265L15.069 38.9796C14.6321 39.2279 14.2158 39.3567 13.8402 39.3782ZM12.6744 38.9926L12.6707 38.9894C12.672 38.9904 12.6734 38.9917 12.6744 38.9926ZM12.5936 38.9142L12.5861 38.9068V38.9064C12.5889 38.9091 12.5912 38.9119 12.5936 38.9142Z" fill="black"/>
<path d="M32.4103 29.1265L32.5229 29.0625L32.4103 29.1265Z" fill="url(#paint4_linear_51_1440)"/>
<path d="M13.731 39.3811C13.3175 39.3811 12.9562 39.2462 12.6748 38.9923L12.6744 38.9928C12.6734 38.9918 12.672 38.9905 12.6707 38.9896L12.5936 38.9144C12.5912 38.912 12.5889 38.9093 12.5861 38.9065L12.6748 38.8178C12.9562 39.0717 13.317 39.2065 13.7305 39.2061C14.1346 39.2061 14.5892 39.0773 15.069 38.8052L32.4113 28.9516L32.5225 29.0627L32.4099 29.1266L15.069 38.9798C14.6317 39.2276 14.2158 39.3568 13.8402 39.3784C13.8033 39.3801 13.7669 39.3811 13.731 39.3811Z" fill="url(#paint5_linear_51_1440)"/>
<path d="M12.5864 38.907C12.2388 38.5391 12.0335 37.9679 12.0335 37.2282V37.2277C12.0335 37.9679 12.2388 38.5386 12.5864 38.9065V38.907Z" fill="black"/>
<path d="M12.5864 38.9065C12.2388 38.5386 12.0335 37.9679 12.0335 37.2277V37.0536C12.0335 37.7933 12.2388 38.3645 12.5864 38.7324L12.6752 38.8174L12.5864 38.9065Z" fill="url(#paint6_linear_51_1440)"/>
<path d="M12.5861 38.9065L12.6748 38.8174V38.8177L12.5861 38.9065Z" fill="url(#paint7_linear_51_1440)"/>
<path d="M39.4826 24.6335C39.5745 24.4319 39.6207 24.2247 39.6207 24.0174C39.6207 24.0171 39.6207 24.0166 39.6207 24.0166C39.6207 24.2242 39.5745 24.4314 39.4826 24.6335Z" fill="black"/>
<path d="M32.522 29.0625L32.4109 28.9514L38.3679 25.5664C39.1244 25.1366 39.5492 24.5821 39.6201 24.0173C39.6201 24.2246 39.5739 24.4318 39.482 24.6335C39.2967 25.0399 38.9252 25.4241 38.3679 25.7409L32.522 29.0625Z" fill="url(#paint8_linear_51_1440)"/>
<path d="M39.6203 24.0156V24.0151C39.6199 23.3902 39.2022 22.7653 38.3681 22.2911L32.5222 18.9695H32.5217L32.5222 18.9692L38.3681 22.2906C39.2031 22.7648 39.6213 23.3906 39.6203 24.0156Z" fill="#404040"/>
<path d="M39.6206 24.0151C39.5496 23.4491 39.1249 22.895 38.3684 22.4652L32.4109 19.0806L32.522 18.9695H32.5225L38.3684 22.2911C39.2024 22.7653 39.6201 23.3902 39.6206 24.0151Z" fill="url(#paint9_linear_51_1440)"/>
<path d="M12.0335 10.7981C12.0335 10.7976 12.0335 10.7971 12.0335 10.7967C12.0335 10.7971 12.0335 10.7976 12.0335 10.7981ZM12.0386 10.6039C12.0386 10.603 12.0386 10.602 12.0386 10.6011C12.0386 10.602 12.0386 10.603 12.0386 10.6039ZM12.039 10.5983C12.039 10.5964 12.039 10.5946 12.039 10.5927C12.039 10.5946 12.039 10.5964 12.039 10.5983ZM12.039 10.5913C12.1082 9.3639 12.7756 8.65492 13.7197 8.65074C13.3104 8.65313 12.9538 8.78754 12.6747 9.03904V9.03856L12.6714 9.04191C12.642 9.06843 12.614 9.09651 12.5864 9.12542C12.2728 9.45721 12.075 9.95423 12.039 10.5913Z" fill="#404040"/>
<path d="M12.0335 10.9792V10.8047C12.0335 10.8023 12.0335 10.8004 12.0335 10.7981C12.0335 10.7976 12.0335 10.7972 12.0335 10.7967C12.0335 10.7309 12.0353 10.6665 12.0386 10.604C12.0386 10.603 12.0386 10.6021 12.0386 10.6011C12.0386 10.6003 12.0386 10.5993 12.039 10.5984C12.039 10.5964 12.039 10.5947 12.039 10.5927C12.039 10.5923 12.039 10.5918 12.039 10.5913C12.075 9.95426 12.2728 9.45723 12.5864 9.12544L12.6738 9.21314C12.2728 9.57492 12.0335 10.1783 12.0335 10.9792ZM12.6714 9.04193L12.6747 9.03858C12.6738 9.04002 12.6724 9.04097 12.6714 9.04193Z" fill="url(#paint10_linear_51_1440)"/>
<path d="M32.4109 19.0806L15.069 9.22695C14.5883 8.95442 14.1333 8.82515 13.7281 8.82515C13.3151 8.82515 12.9548 8.95956 12.6734 9.21297L12.5861 9.12527C12.6137 9.09636 12.6416 9.06828 12.671 9.04176C12.672 9.0408 12.6734 9.03985 12.6744 9.03889C12.9535 8.78739 13.31 8.65298 13.7193 8.65059C13.7203 8.65059 13.7216 8.65059 13.723 8.65059C13.7249 8.65059 13.7262 8.65059 13.7281 8.65059C14.1333 8.65059 14.5883 8.77986 15.069 9.05251L32.5225 18.9691L32.522 18.9695L32.4109 19.0806Z" fill="url(#paint11_linear_51_1440)"/>
</g>
<defs>
<linearGradient id="paint0_linear_51_1440" x1="26.1642" y1="10.5255" x2="6.11295" y2="30.5767" gradientUnits="userSpaceOnUse">
<stop stop-color="#00A0FF"/>
<stop offset="0.00657445" stop-color="#00A1FF"/>
<stop offset="0.2601" stop-color="#00BEFF"/>
<stop offset="0.5122" stop-color="#00D2FF"/>
<stop offset="0.7604" stop-color="#00DFFF"/>
<stop offset="1" stop-color="#00E3FF"/>
</linearGradient>
<linearGradient id="paint1_linear_51_1440" x1="40.5426" y1="24.0163" x2="11.6328" y2="24.0163" gradientUnits="userSpaceOnUse">
<stop stop-color="#FFE000"/>
<stop offset="0.4087" stop-color="#FFBD00"/>
<stop offset="0.7754" stop-color="#FFA500"/>
<stop offset="1" stop-color="#FF9C00"/>
</linearGradient>
<linearGradient id="paint2_linear_51_1440" x1="29.7794" y1="26.7581" x2="2.58848" y2="53.949" gradientUnits="userSpaceOnUse">
<stop stop-color="#FF3A44"/>
<stop offset="1" stop-color="#C31162"/>
</linearGradient>
<linearGradient id="paint3_linear_51_1440" x1="8.83725" y1="0.329808" x2="20.9791" y2="12.4716" gradientUnits="userSpaceOnUse">
<stop stop-color="#32A071"/>
<stop offset="0.0685" stop-color="#2DA771"/>
<stop offset="0.4762" stop-color="#15CF74"/>
<stop offset="0.8009" stop-color="#06E775"/>
<stop offset="1" stop-color="#00F076"/>
</linearGradient>
<linearGradient id="paint4_linear_51_1440" x1="40.5428" y1="24.0165" x2="11.6328" y2="24.0165" gradientUnits="userSpaceOnUse">
<stop stop-color="#CCB300"/>
<stop offset="0.4087" stop-color="#CC9700"/>
<stop offset="0.7754" stop-color="#CC8400"/>
<stop offset="1" stop-color="#CC7D00"/>
</linearGradient>
<linearGradient id="paint5_linear_51_1440" x1="29.7806" y1="26.7581" x2="2.58966" y2="53.949" gradientUnits="userSpaceOnUse">
<stop stop-color="#CC2E36"/>
<stop offset="1" stop-color="#9C0E4E"/>
</linearGradient>
<linearGradient id="paint6_linear_51_1440" x1="26.1642" y1="10.5255" x2="6.11301" y2="30.5768" gradientUnits="userSpaceOnUse">
<stop stop-color="#008DE0"/>
<stop offset="0.00657445" stop-color="#008DE0"/>
<stop offset="0.2601" stop-color="#00A7E0"/>
<stop offset="0.5122" stop-color="#00B8E0"/>
<stop offset="0.7604" stop-color="#00C4E0"/>
<stop offset="1" stop-color="#00C7E0"/>
</linearGradient>
<linearGradient id="paint7_linear_51_1440" x1="29.7811" y1="26.7584" x2="2.59088" y2="53.9501" gradientUnits="userSpaceOnUse">
<stop stop-color="#E0333C"/>
<stop offset="1" stop-color="#AB0F56"/>
</linearGradient>
<linearGradient id="paint8_linear_51_1440" x1="40.5419" y1="24.0163" x2="11.6321" y2="24.0163" gradientUnits="userSpaceOnUse">
<stop stop-color="#E0C500"/>
<stop offset="0.4087" stop-color="#E0A600"/>
<stop offset="0.7754" stop-color="#E09100"/>
<stop offset="1" stop-color="#E08900"/>
</linearGradient>
<linearGradient id="paint9_linear_51_1440" x1="40.5424" y1="24.0163" x2="11.6326" y2="24.0163" gradientUnits="userSpaceOnUse">
<stop stop-color="#FFE840"/>
<stop offset="0.4087" stop-color="#FFCE40"/>
<stop offset="0.7754" stop-color="#FFBC40"/>
<stop offset="1" stop-color="#FFB540"/>
</linearGradient>
<linearGradient id="paint10_linear_51_1440" x1="26.1642" y1="10.5255" x2="6.11296" y2="30.5767" gradientUnits="userSpaceOnUse">
<stop stop-color="#40B8FF"/>
<stop offset="0.00657445" stop-color="#40B9FF"/>
<stop offset="0.2601" stop-color="#40CEFF"/>
<stop offset="0.5122" stop-color="#40DDFF"/>
<stop offset="0.7604" stop-color="#40E7FF"/>
<stop offset="1" stop-color="#40EAFF"/>
</linearGradient>
<linearGradient id="paint11_linear_51_1440" x1="8.83664" y1="0.329742" x2="20.9785" y2="12.4716" gradientUnits="userSpaceOnUse">
<stop stop-color="#65B895"/>
<stop offset="0.0685" stop-color="#62BD95"/>
<stop offset="0.4762" stop-color="#50DB97"/>
<stop offset="0.8009" stop-color="#44ED98"/>
<stop offset="1" stop-color="#40F498"/>
</linearGradient>
<clipPath id="clip0_51_1440">
<rect width="161.652" height="48.0297" fill="white"/>
</clipPath>
</defs>
</svg>
