<svg width="145" height="49" viewBox="0 0 145 49" fill="none" xmlns="http://www.w3.org/2000/svg">
<g clip-path="url(#clip0_51_1502)">
<path d="M132.914 -8.80441e-05H12.1195C11.6792 -8.80441e-05 11.2441 -8.8044e-05 10.805 0.00231344C10.4374 0.00471493 10.0727 0.0116912 9.70156 0.0175629C8.89528 0.0270509 8.09089 0.0979841 7.29539 0.229746C6.50101 0.364377 5.73151 0.618193 5.01293 0.982612C4.29522 1.35011 3.63943 1.82764 3.06934 2.39788C2.49627 2.96651 2.01857 3.62377 1.65461 4.34439C1.28964 5.06357 1.03657 5.83425 0.904141 6.62979C0.770451 7.42433 0.698512 8.22803 0.688968 9.03368C0.677825 9.40182 0.676648 9.77119 0.670776 10.1394V37.8937C0.676648 38.2665 0.677825 38.6277 0.688968 39.0006C0.698515 39.8062 0.770454 40.6099 0.904141 41.4044C1.03621 42.2004 1.28929 42.9715 1.65461 43.691C2.0184 44.4093 2.49617 45.0639 3.06934 45.6293C3.63727 46.2021 4.29348 46.68 5.01293 47.0446C5.73151 47.41 6.50092 47.6654 7.29539 47.8021C8.09103 47.9328 8.89533 48.0037 9.70156 48.0144C10.0727 48.0225 10.4374 48.0272 10.805 48.0272C11.2441 48.0296 11.6792 48.0296 12.1195 48.0296H132.914C133.346 48.0296 133.784 48.0296 134.216 48.0272C134.582 48.0272 134.957 48.0225 135.323 48.0144C136.128 48.0043 136.93 47.9333 137.724 47.8021C138.521 47.6644 139.294 47.4091 140.016 47.0446C140.734 46.6797 141.39 46.2019 141.957 45.6293C142.529 45.0616 143.008 44.4075 143.376 43.691C143.739 42.971 143.99 42.1999 144.12 41.4044C144.254 40.6098 144.328 39.8063 144.342 39.0006C144.347 38.6277 144.347 38.2665 144.347 37.8937C144.357 37.4574 144.357 37.0236 144.357 36.5803V11.4503C144.357 11.0106 144.357 10.5744 144.347 10.1394C144.347 9.77119 144.347 9.40182 144.342 9.03363C144.328 8.22791 144.254 7.42439 144.12 6.62974C143.989 5.83466 143.738 5.06405 143.376 4.34434C142.635 2.89994 141.46 1.72421 140.016 0.982504C139.294 0.618976 138.521 0.365226 137.724 0.229638C136.931 0.0972955 136.128 0.0263376 135.323 0.0173948C134.957 0.0115351 134.582 0.00449879 134.216 0.00215734C133.784 -0.000244141 133.346 -0.000244141 132.914 -0.000244141V-8.80441e-05Z" fill="#A6A6A6"/>
<path d="M10.8106 46.979C10.4448 46.979 10.0878 46.9743 9.7248 46.9661C8.97287 46.9563 8.2227 46.8908 7.48044 46.7703C6.78832 46.6511 6.11785 46.4293 5.49113 46.1124C4.87015 45.798 4.30377 45.3859 3.81369 44.8917C3.31651 44.4033 2.90258 43.8369 2.58832 43.2149C2.27059 42.5888 2.0507 41.9177 1.93631 41.225C1.81279 40.4807 1.74595 39.728 1.73639 38.9736C1.72878 38.7204 1.71881 37.8772 1.71881 37.8772V10.1394C1.71881 10.1394 1.72943 9.30916 1.73645 9.06526C1.74561 8.31201 1.81205 7.56055 1.93521 6.81738C2.04981 6.12278 2.26986 5.44976 2.58776 4.82163C2.90088 4.20002 3.3125 3.63317 3.80669 3.14305C4.30032 2.64827 4.86851 2.23399 5.49054 1.91532C6.11582 1.59939 6.78503 1.37922 7.47575 1.26219C8.22045 1.1404 8.97322 1.07455 9.72775 1.0652L10.8112 1.05054H134.21L135.306 1.06579C136.054 1.07467 136.8 1.13993 137.538 1.26102C138.235 1.37951 138.912 1.60122 139.544 1.91884C140.79 2.56105 141.804 3.5771 142.444 4.82456C142.757 5.44835 142.973 6.11588 143.086 6.80448C143.211 7.55375 143.281 8.31112 143.295 9.07054C143.299 9.41059 143.299 9.77586 143.299 10.1394C143.308 10.5896 143.308 11.0182 143.308 11.4503V36.5803C143.308 37.0165 143.308 37.4422 143.299 37.8713C143.299 38.2618 143.299 38.6195 143.294 38.9876C143.28 39.7335 143.211 40.4774 143.089 41.2132C142.977 41.9109 142.758 42.5872 142.44 43.2185C142.124 43.8337 141.712 44.3953 141.221 44.8823C140.73 45.3792 140.163 45.7938 139.541 46.1101C138.91 46.4295 138.235 46.652 137.538 46.7703C136.795 46.8915 136.045 46.957 135.293 46.9661C134.942 46.9743 134.573 46.979 134.216 46.979L132.914 46.9813L10.8106 46.979Z" fill="black"/>
<path d="M30.4096 24.3753C30.4225 23.373 30.6887 22.3904 31.1834 21.5187C31.6781 20.647 32.3853 19.9146 33.2392 19.3897C32.6968 18.615 31.9812 17.9775 31.1493 17.5278C30.3174 17.078 29.392 16.8285 28.4468 16.7989C26.4305 16.5872 24.4757 18.0054 23.4482 18.0054C22.4009 18.0054 20.8189 16.8199 19.1154 16.8549C18.0135 16.8905 16.9396 17.211 15.9984 17.785C15.0571 18.359 14.2806 19.1671 13.7445 20.1304C11.4223 24.151 13.1545 30.0599 15.379 33.3099C16.492 34.9013 17.7927 36.6789 19.4947 36.6159C21.1602 36.5468 21.7822 35.5538 23.7926 35.5538C25.7844 35.5538 26.368 36.6159 28.1045 36.5758C29.8917 36.5468 31.0177 34.9773 32.0916 33.3708C32.8912 32.2369 33.5066 30.9837 33.9148 29.6575C32.8765 29.2184 31.9905 28.4833 31.3671 27.544C30.7438 26.6046 30.4108 25.5026 30.4096 24.3753Z" fill="white"/>
<path d="M27.1301 14.6623C28.1045 13.4925 28.5846 11.989 28.4683 10.4709C26.9796 10.6273 25.6045 11.3388 24.6169 12.4637C24.134 13.0133 23.7642 13.6526 23.5285 14.3451C23.2929 15.0377 23.1961 15.7699 23.2436 16.4999C23.9882 16.5075 24.7249 16.3461 25.3981 16.0278C26.0713 15.7095 26.6635 15.2426 27.1301 14.6623Z" fill="white"/>
<path d="M51.4649 32.5874H45.7813L44.4164 36.6176H42.0091L47.3925 21.7068H49.8937L55.2771 36.6176H52.8287L51.4649 32.5874ZM46.37 30.7276H50.8752L48.6543 24.1869H48.5921L46.37 30.7276Z" fill="white"/>
<path d="M66.904 31.1823C66.904 34.5606 65.0959 36.731 62.3673 36.731C61.676 36.7672 60.9886 36.608 60.3837 36.2716C59.7788 35.9352 59.2808 35.4353 58.9468 34.8291H58.8952V40.2137H56.6637V25.7461H58.8237V27.5543H58.8647C59.2141 26.9509 59.7205 26.4536 60.33 26.1152C60.9395 25.7768 61.6294 25.6099 62.3262 25.6324C65.0853 25.6324 66.904 27.8134 66.904 31.1823ZM64.6104 31.1823C64.6104 28.9813 63.473 27.5343 61.7376 27.5343C60.0326 27.5343 58.8858 29.0118 58.8858 31.1823C58.8858 33.3727 60.0326 34.8396 61.7376 34.8396C63.473 34.8396 64.6104 33.4032 64.6104 31.1823Z" fill="white"/>
<path d="M78.8689 31.1823C78.8689 34.5606 77.0608 36.731 74.3322 36.731C73.6409 36.7672 72.9535 36.608 72.3486 36.2716C71.7437 35.9352 71.2457 35.4353 70.9117 34.8291H70.8601V40.2136H68.6286V25.7461H70.7885V27.5543H70.8296C71.1789 26.9509 71.6853 26.4536 72.2948 26.1152C72.9044 25.7768 73.5943 25.6099 74.2911 25.6324C77.0502 25.6324 78.8689 27.8134 78.8689 31.1823ZM76.5753 31.1823C76.5753 28.9813 75.4379 27.5343 73.7025 27.5343C71.9975 27.5343 70.8507 29.0118 70.8507 31.1823C70.8507 33.3727 71.9975 34.8396 73.7025 34.8396C75.4379 34.8396 76.5754 33.4032 76.5754 31.1823H76.5753Z" fill="white"/>
<path d="M86.7767 32.4632C86.942 33.9418 88.3785 34.9127 90.3414 34.9127C92.2222 34.9127 93.5754 33.9418 93.5754 32.6085C93.5754 31.4512 92.7593 30.7582 90.8268 30.2833L88.8944 29.8177C86.1564 29.1564 84.8853 27.8759 84.8853 25.798C84.8853 23.2254 87.1273 21.4583 90.3109 21.4583C93.4616 21.4583 95.6216 23.2254 95.6943 25.798H93.4417C93.3069 24.31 92.0768 23.4118 90.2792 23.4118C88.4816 23.4118 87.2515 24.3206 87.2515 25.6433C87.2515 26.6974 88.0372 27.3177 89.9591 27.7926L91.6019 28.196C94.6612 28.9195 95.9323 30.1484 95.9323 32.3294C95.9323 35.119 93.7102 36.8662 90.176 36.8662C86.8693 36.8662 84.6366 35.16 84.4924 32.4631L86.7767 32.4632Z" fill="white"/>
<path d="M100.748 23.1748V25.7475H102.816V27.5146H100.748V33.5078C100.748 34.4388 101.162 34.8727 102.071 34.8727C102.316 34.8684 102.561 34.8512 102.805 34.821V36.5776C102.396 36.6539 101.981 36.6885 101.566 36.6808C99.3646 36.6808 98.5063 35.8541 98.5063 33.7458V27.5146H96.9256V25.7475H98.5063V23.1748H100.748Z" fill="white"/>
<path d="M104.013 31.1836C104.013 27.7631 106.027 25.6138 109.168 25.6138C112.32 25.6138 114.326 27.7631 114.326 31.1836C114.326 34.6135 112.331 36.7535 109.168 36.7535C106.007 36.7535 104.013 34.6135 104.013 31.1836ZM112.052 31.1836C112.052 28.8372 110.977 27.4524 109.168 27.4524C107.36 27.4524 106.286 28.8478 106.286 31.1836C106.286 33.5394 107.36 34.9137 109.168 34.9137C110.977 34.9137 112.052 33.5394 112.052 31.1836H112.052Z" fill="white"/>
<path d="M116.166 25.746H118.294V27.5964H118.346C118.49 27.0185 118.828 26.5078 119.304 26.1501C119.781 25.7924 120.365 25.6095 120.961 25.6323C121.218 25.6314 121.474 25.6593 121.725 25.7155V27.8027C121.401 27.7035 121.062 27.658 120.723 27.6679C120.398 27.6548 120.075 27.7119 119.775 27.8355C119.475 27.959 119.205 28.146 118.985 28.3836C118.764 28.6212 118.597 28.9038 118.495 29.212C118.394 29.5202 118.361 29.8467 118.397 30.1691V36.6172H116.166L116.166 25.746Z" fill="white"/>
<path d="M132.013 33.4256C131.713 35.3991 129.791 36.7535 127.332 36.7535C124.17 36.7535 122.207 34.6346 122.207 31.2352C122.207 27.8253 124.18 25.6138 127.239 25.6138C130.246 25.6138 132.138 27.6799 132.138 30.9761V31.7406H124.459V31.8755C124.424 32.2755 124.474 32.6786 124.606 33.0578C124.739 33.4371 124.95 33.7838 125.227 34.0751C125.503 34.3663 125.839 34.5954 126.211 34.747C126.583 34.8987 126.983 34.9695 127.384 34.9547C127.911 35.0041 128.44 34.882 128.893 34.6065C129.345 34.331 129.696 33.9168 129.894 33.4256L132.013 33.4256ZM124.47 30.181H129.905C129.925 29.8213 129.871 29.4613 129.745 29.1237C129.619 28.786 129.425 28.478 129.175 28.2189C128.924 27.9598 128.623 27.7553 128.29 27.6181C127.957 27.481 127.599 27.4142 127.239 27.4219C126.875 27.4198 126.515 27.4896 126.179 27.6273C125.842 27.7651 125.537 27.9681 125.279 28.2246C125.022 28.4812 124.818 28.7861 124.679 29.1219C124.54 29.4577 124.469 29.8177 124.47 30.1811V30.181Z" fill="white"/>
<path d="M46.091 10.484C46.5588 10.4504 47.0282 10.5211 47.4655 10.6909C47.9027 10.8607 48.2967 11.1255 48.6192 11.466C48.9417 11.8066 49.1846 12.2145 49.3304 12.6603C49.4762 13.1061 49.5212 13.5787 49.4622 14.044C49.4622 16.3329 48.2251 17.6486 46.091 17.6486H43.5031V10.484H46.091ZM44.6158 16.6354H45.9667C46.301 16.6553 46.6355 16.6005 46.946 16.4749C47.2564 16.3493 47.5349 16.156 47.7612 15.9092C47.9876 15.6624 48.156 15.3682 48.2543 15.0481C48.3526 14.7279 48.3783 14.3899 48.3295 14.0586C48.3747 13.7286 48.3465 13.3926 48.2467 13.0748C48.1469 12.757 47.978 12.4653 47.7522 12.2204C47.5264 11.9755 47.2492 11.7836 46.9405 11.6585C46.6318 11.5333 46.2993 11.478 45.9667 11.4964H44.6158V16.6354Z" fill="white"/>
<path d="M50.7193 14.9438C50.6853 14.5885 50.7259 14.23 50.8386 13.8913C50.9513 13.5526 51.1335 13.2412 51.3736 12.9771C51.6137 12.7129 51.9063 12.5019 52.2327 12.3574C52.5591 12.213 52.9122 12.1384 53.2691 12.1384C53.626 12.1384 53.979 12.213 54.3055 12.3574C54.6319 12.5019 54.9245 12.7129 55.1646 12.9771C55.4047 13.2412 55.5869 13.5526 55.6996 13.8913C55.8123 14.23 55.8529 14.5885 55.8189 14.9438C55.8535 15.2995 55.8134 15.6585 55.701 15.9977C55.5886 16.337 55.4065 16.649 55.1664 16.9136C54.9262 17.1783 54.6334 17.3898 54.3066 17.5345C53.9799 17.6792 53.6265 17.754 53.2691 17.754C52.9117 17.754 52.5583 17.6792 52.2316 17.5345C51.9048 17.3898 51.612 17.1783 51.3718 16.9136C51.1317 16.649 50.9496 16.337 50.8372 15.9977C50.7248 15.6585 50.6846 15.2995 50.7193 14.9438ZM54.7214 14.9438C54.7214 13.7718 54.1948 13.0864 53.2709 13.0864C52.3433 13.0864 51.8216 13.7718 51.8216 14.9438C51.8216 16.1252 52.3434 16.8053 53.2709 16.8053C54.1949 16.8053 54.7214 16.1205 54.7214 14.9438H54.7214Z" fill="white"/>
<path d="M62.5977 17.6486H61.4908L60.3733 13.6664H60.2889L59.1761 17.6486H58.0797L56.5893 12.2417H57.6716L58.6402 16.3675H58.7199L59.8315 12.2417H60.8552L61.9668 16.3675H62.0513L63.0151 12.2417H64.0822L62.5977 17.6486Z" fill="white"/>
<path d="M65.3354 12.2413H66.3626V13.1002H66.4424C66.5776 12.7917 66.8058 12.5331 67.095 12.3604C67.3842 12.1878 67.7201 12.1096 68.0559 12.1369C68.3189 12.1171 68.5831 12.1568 68.8288 12.253C69.0744 12.3492 69.2953 12.4994 69.4751 12.6925C69.6548 12.8856 69.7888 13.1167 69.867 13.3687C69.9453 13.6206 69.9659 13.8869 69.9273 14.1479V17.6481H68.8603V14.4159C68.8603 13.547 68.4827 13.1149 67.6935 13.1149C67.5149 13.1066 67.3366 13.137 67.1708 13.204C67.0051 13.271 66.8557 13.3731 66.7331 13.5033C66.6105 13.6334 66.5175 13.7885 66.4604 13.958C66.4033 14.1274 66.3836 14.3072 66.4025 14.4851V17.6481H65.3354L65.3354 12.2413Z" fill="white"/>
<path d="M71.6279 10.1311H72.6949V17.6486H71.6279V10.1311Z" fill="white"/>
<path d="M74.1786 14.942C74.1446 14.5866 74.1853 14.2281 74.298 13.8894C74.4107 13.5507 74.593 13.2393 74.8331 12.9751C75.0732 12.711 75.3658 12.4999 75.6923 12.3555C76.0187 12.2111 76.3717 12.1365 76.7287 12.1365C77.0857 12.1365 77.4387 12.2111 77.7651 12.3555C78.0916 12.4999 78.3842 12.711 78.6243 12.9751C78.8645 13.2393 79.0467 13.5507 79.1594 13.8894C79.2721 14.2281 79.3128 14.5866 79.2788 14.942C79.3134 15.2977 79.2732 15.6567 79.1608 15.9959C79.0484 16.3351 78.8662 16.6471 78.6261 16.9118C78.3859 17.1764 78.093 17.3879 77.7663 17.5326C77.4395 17.6774 77.0861 17.7521 76.7287 17.7521C76.3713 17.7521 76.0179 17.6774 75.6911 17.5326C75.3644 17.3879 75.0715 17.1764 74.8313 16.9118C74.5912 16.6471 74.409 16.3351 74.2966 15.9959C74.1842 15.6567 74.144 15.2977 74.1786 14.942ZM78.1807 14.942C78.1807 13.77 77.6542 13.0846 76.7302 13.0846C75.8026 13.0846 75.2809 13.77 75.2809 14.942C75.2809 16.1234 75.8027 16.8035 76.7302 16.8035C77.6542 16.8035 78.1807 16.1187 78.1807 14.942H78.1807Z" fill="white"/>
<path d="M80.4019 16.1206C80.4019 15.1473 81.1265 14.5862 82.4129 14.5065L83.8775 14.4221V13.9554C83.8775 13.3843 83.4999 13.0618 82.7705 13.0618C82.1748 13.0618 81.7621 13.2805 81.6436 13.6628H80.6106C80.7196 12.7341 81.5932 12.1384 82.8198 12.1384C84.1753 12.1384 84.9398 12.8132 84.9398 13.9554V17.6496H83.9126V16.8898H83.8282C83.6568 17.1624 83.4162 17.3846 83.1309 17.5337C82.8456 17.6829 82.5258 17.7536 82.2041 17.7387C81.9772 17.7623 81.7478 17.7381 81.5307 17.6676C81.3137 17.5972 81.1138 17.482 80.944 17.3295C80.7742 17.1771 80.6382 16.9907 80.5448 16.7825C80.4515 16.5743 80.4027 16.3488 80.4019 16.1206ZM83.8775 15.6586V15.2065L82.5571 15.291C81.8125 15.3408 81.4748 15.5941 81.4748 16.0707C81.4748 16.5574 81.8969 16.8405 82.4774 16.8405C82.6475 16.8578 82.8193 16.8406 82.9826 16.79C83.1459 16.7395 83.2974 16.6566 83.428 16.5464C83.5586 16.4361 83.6657 16.3006 83.7429 16.1481C83.8202 15.9956 83.8659 15.8291 83.8775 15.6586Z" fill="white"/>
<path d="M86.3426 14.9429C86.3426 13.2344 87.2208 12.1521 88.5869 12.1521C88.9248 12.1365 89.2602 12.2175 89.5538 12.3854C89.8474 12.5534 90.0871 12.8015 90.245 13.1007H90.3247V10.1311H91.3918V17.6486H90.3693V16.7944H90.2849C90.1148 17.0916 89.8667 17.3366 89.5674 17.5028C89.2682 17.6691 88.9291 17.7504 88.5869 17.7377C87.2115 17.7378 86.3426 16.6555 86.3426 14.9429ZM87.4448 14.9429C87.4448 16.0897 87.9854 16.7798 88.8895 16.7798C89.7889 16.7798 90.3447 16.0797 90.3447 14.9476C90.3447 13.8207 89.783 13.1107 88.8895 13.1107C87.9912 13.1107 87.4448 13.8055 87.4448 14.9429H87.4448Z" fill="white"/>
<path d="M95.8065 14.9438C95.7725 14.5885 95.8131 14.23 95.9258 13.8913C96.0385 13.5526 96.2207 13.2412 96.4608 12.9771C96.7009 12.7129 96.9935 12.5019 97.3199 12.3574C97.6464 12.213 97.9994 12.1384 98.3563 12.1384C98.7133 12.1384 99.0663 12.213 99.3927 12.3574C99.7191 12.5019 100.012 12.7129 100.252 12.9771C100.492 13.2412 100.674 13.5526 100.787 13.8913C100.899 14.23 100.94 14.5885 100.906 14.9438C100.941 15.2995 100.901 15.6585 100.788 15.9977C100.676 16.337 100.494 16.649 100.254 16.9136C100.013 17.1783 99.7206 17.3898 99.3939 17.5345C99.0671 17.6792 98.7137 17.754 98.3563 17.754C97.9989 17.754 97.6455 17.6792 97.3188 17.5345C96.992 17.3898 96.6992 17.1783 96.459 16.9136C96.2189 16.649 96.0368 16.337 95.9244 15.9977C95.812 15.6585 95.7719 15.2995 95.8065 14.9438ZM99.8086 14.9438C99.8086 13.7718 99.2821 13.0864 98.3581 13.0864C97.4306 13.0864 96.9088 13.7718 96.9088 14.9438C96.9088 16.1252 97.4306 16.8053 98.3581 16.8053C99.2821 16.8053 99.8086 16.1205 99.8086 14.9438Z" fill="white"/>
<path d="M102.338 12.2413H103.365V13.1002H103.444C103.58 12.7917 103.808 12.5331 104.097 12.3604C104.386 12.1878 104.722 12.1096 105.058 12.1369C105.321 12.1171 105.585 12.1568 105.831 12.253C106.077 12.3492 106.297 12.4994 106.477 12.6925C106.657 12.8856 106.791 13.1167 106.869 13.3687C106.947 13.6206 106.968 13.8869 106.929 14.1479V17.6481H105.862V14.4159C105.862 13.547 105.485 13.1149 104.696 13.1149C104.517 13.1066 104.339 13.137 104.173 13.204C104.007 13.271 103.858 13.3731 103.735 13.5033C103.613 13.6334 103.52 13.7885 103.463 13.958C103.405 14.1274 103.386 14.3072 103.405 14.4851V17.6481H102.338V12.2413Z" fill="white"/>
<path d="M112.959 10.8958V12.2665H114.13V13.1653H112.959V15.9456C112.959 16.5119 113.192 16.7599 113.724 16.7599C113.859 16.7595 113.995 16.7513 114.13 16.7353V17.6241C113.939 17.6584 113.745 17.6766 113.55 17.6786C112.363 17.6786 111.891 17.2612 111.891 16.2188V13.1653H111.032V12.2665H111.891V10.8958H112.959Z" fill="white"/>
<path d="M115.588 10.1311H116.646V13.1107H116.73C116.872 12.7993 117.106 12.5392 117.401 12.3659C117.696 12.1926 118.038 12.1144 118.379 12.1421C118.64 12.1279 118.902 12.1716 119.145 12.2701C119.388 12.3686 119.606 12.5195 119.784 12.712C119.962 12.9045 120.095 13.1339 120.174 13.3839C120.253 13.6338 120.276 13.898 120.241 14.1578V17.6487H119.173V14.4211C119.173 13.5574 118.77 13.1201 118.016 13.1201C117.833 13.105 117.649 13.1302 117.476 13.1939C117.303 13.2576 117.147 13.3583 117.017 13.4889C116.887 13.6194 116.788 13.7767 116.725 13.9498C116.663 14.1229 116.639 14.3075 116.655 14.4908V17.6486H115.588L115.588 10.1311Z" fill="white"/>
<path d="M126.463 16.1879C126.318 16.682 126.003 17.1095 125.575 17.3955C125.147 17.6814 124.632 17.8077 124.12 17.7521C123.763 17.7615 123.409 17.6933 123.082 17.5522C122.755 17.4111 122.462 17.2004 122.225 16.9349C121.987 16.6694 121.81 16.3553 121.706 16.0145C121.602 15.6737 121.573 15.3144 121.622 14.9614C121.575 14.6073 121.604 14.2471 121.708 13.9053C121.811 13.5635 121.988 13.248 122.224 12.9801C122.46 12.7123 122.752 12.4983 123.078 12.3528C123.404 12.2073 123.758 12.1335 124.115 12.1366C125.619 12.1366 126.527 13.1644 126.527 14.8623V15.2346H122.709V15.2944C122.692 15.4928 122.717 15.6925 122.782 15.8807C122.847 16.069 122.951 16.2415 123.086 16.3874C123.222 16.5332 123.387 16.6491 123.57 16.7276C123.752 16.8061 123.95 16.8456 124.149 16.8433C124.404 16.874 124.663 16.828 124.892 16.7113C125.121 16.5946 125.31 16.4124 125.435 16.1879L126.463 16.1879ZM122.709 14.4454H125.44C125.453 14.2639 125.429 14.0817 125.368 13.9103C125.306 13.7389 125.21 13.5823 125.085 13.4504C124.959 13.3184 124.808 13.2142 124.64 13.1444C124.472 13.0745 124.291 13.0406 124.109 13.0447C123.925 13.0424 123.741 13.0771 123.57 13.1467C123.399 13.2162 123.244 13.3193 123.114 13.4499C122.983 13.5804 122.88 13.7357 122.811 13.9067C122.741 14.0777 122.707 14.2609 122.709 14.4454H122.709Z" fill="white"/>
</g>
<defs>
<clipPath id="clip0_51_1502">
<rect width="143.686" height="48.0297" fill="white" transform="translate(0.670776)"/>
</clipPath>
</defs>
</svg>
