<svg width="30" height="30" viewBox="0 0 30 30" fill="none" xmlns="http://www.w3.org/2000/svg">
<path d="M15 0C6.72 0 0 6.72 0 15C0 23.28 6.72 30 15 30C23.28 30 30 23.28 30 15C30 6.72 23.28 0 15 0ZM16.5 25.5H13.5V22.5H16.5V25.5ZM19.605 13.875L18.255 15.255C17.505 16.02 16.965 16.71 16.695 17.79C16.575 18.27 16.5 18.81 16.5 19.5H13.5V18.75C13.5 18.06 13.62 17.4 13.83 16.785C14.13 15.915 14.625 15.135 15.255 14.505L17.115 12.615C17.805 11.955 18.135 10.965 17.94 9.915C17.745 8.835 16.905 7.92 15.855 7.62C14.19 7.155 12.645 8.1 12.15 9.525C11.97 10.08 11.505 10.5 10.92 10.5H10.47C9.6 10.5 9 9.66 9.24 8.82C9.885 6.615 11.76 4.935 14.085 4.575C16.365 4.215 18.54 5.4 19.89 7.275C21.66 9.72 21.135 12.345 19.605 13.875Z" fill="white"/>
</svg>
