<svg width="178" height="178" viewBox="0 0 178 178" fill="none" xmlns="http://www.w3.org/2000/svg">
<g filter="url(#filter0_d_51_1429)">
<rect x="46" y="41" width="60" height="60" rx="30" fill="#A89CFF" shape-rendering="crispEdges"/>
<path d="M86.5 60.5H83.5V59C83.5 58.175 82.825 57.5 82 57.5H70C69.175 57.5 68.5 58.175 68.5 59V60.5H65.5C63.85 60.5 62.5 61.85 62.5 63.5V65C62.5 68.825 65.38 71.945 69.085 72.41C70.03 74.66 72.055 76.355 74.5 76.85V81.5H70C69.175 81.5 68.5 82.175 68.5 83C68.5 83.825 69.175 84.5 70 84.5H82C82.825 84.5 83.5 83.825 83.5 83C83.5 82.175 82.825 81.5 82 81.5H77.5V76.85C79.945 76.355 81.97 74.66 82.915 72.41C86.62 71.945 89.5 68.825 89.5 65V63.5C89.5 61.85 88.15 60.5 86.5 60.5ZM65.5 65V63.5H68.5V69.23C66.76 68.6 65.5 66.95 65.5 65ZM86.5 65C86.5 66.95 85.24 68.6 83.5 69.23V63.5H86.5V65Z" fill="white"/>
</g>
<defs>
<filter id="filter0_d_51_1429" x="0" y="0" width="178" height="178" filterUnits="userSpaceOnUse" color-interpolation-filters="sRGB">
<feFlood flood-opacity="0" result="BackgroundImageFix"/>
<feColorMatrix in="SourceAlpha" type="matrix" values="0 0 0 0 0 0 0 0 0 0 0 0 0 0 0 0 0 0 127 0" result="hardAlpha"/>
<feOffset dx="13" dy="18"/>
<feGaussianBlur stdDeviation="29.5"/>
<feComposite in2="hardAlpha" operator="out"/>
<feColorMatrix type="matrix" values="0 0 0 0 0.176471 0 0 0 0 0.192157 0 0 0 0 0.27451 0 0 0 0.05 0"/>
<feBlend mode="normal" in2="BackgroundImageFix" result="effect1_dropShadow_51_1429"/>
<feBlend mode="normal" in="SourceGraphic" in2="effect1_dropShadow_51_1429" result="shape"/>
</filter>
</defs>
</svg>
