<svg width="178" height="178" viewBox="0 0 178 178" fill="none" xmlns="http://www.w3.org/2000/svg">
<g filter="url(#filter0_d_51_1423)">
<rect x="46" y="41" width="60" height="60" rx="30" fill="#23B899" shape-rendering="crispEdges"/>
<path d="M64.279 79.6469L72.229 71.6968L77.104 76.5718C77.719 77.1869 78.709 77.1568 79.279 76.5119L90.034 64.4068C90.559 63.8218 90.529 62.9218 89.974 62.3518C89.374 61.7518 88.369 61.7668 87.799 62.4118L78.214 73.1819L73.279 68.2469C72.694 67.6619 71.749 67.6619 71.164 68.2469L62.029 77.3969C61.444 77.9819 61.444 78.9269 62.029 79.5119L62.164 79.6469C62.749 80.2319 63.709 80.2319 64.279 79.6469Z" fill="white"/>
</g>
<defs>
<filter id="filter0_d_51_1423" x="0" y="0" width="178" height="178" filterUnits="userSpaceOnUse" color-interpolation-filters="sRGB">
<feFlood flood-opacity="0" result="BackgroundImageFix"/>
<feColorMatrix in="SourceAlpha" type="matrix" values="0 0 0 0 0 0 0 0 0 0 0 0 0 0 0 0 0 0 127 0" result="hardAlpha"/>
<feOffset dx="13" dy="18"/>
<feGaussianBlur stdDeviation="29.5"/>
<feComposite in2="hardAlpha" operator="out"/>
<feColorMatrix type="matrix" values="0 0 0 0 0.176471 0 0 0 0 0.192157 0 0 0 0 0.27451 0 0 0 0.05 0"/>
<feBlend mode="normal" in2="BackgroundImageFix" result="effect1_dropShadow_51_1423"/>
<feBlend mode="normal" in="SourceGraphic" in2="effect1_dropShadow_51_1423" result="shape"/>
</filter>
</defs>
</svg>
