<svg width="82" height="83" viewBox="0 0 82 83" fill="none" xmlns="http://www.w3.org/2000/svg">
<circle cx="41" cy="41.7056" r="41" fill="url(#paint0_linear_53_5254)"/>
<mask id="mask0_53_5254" style="mask-type:alpha" maskUnits="userSpaceOnUse" x="0" y="0" width="82" height="83">
<circle cx="41" cy="41.7056" r="41" fill="url(#paint1_linear_53_5254)"/>
</mask>
<g mask="url(#mask0_53_5254)">
<path d="M53.068 17.099C51.1304 15.5575 48.7085 14.8627 46.2484 15.1427C42.1515 15.6093 38.9068 18.6488 38.1733 22.7139L36.8157 30.3531L30.2977 26.1306C26.831 23.8976 22.3946 24.1972 19.2594 26.8744C17.3764 28.4822 16.2323 30.727 16.0378 33.1955C15.8433 35.664 16.6217 38.0602 18.2295 39.9429C20.8972 43.0669 25.2088 44.0615 28.9602 42.4307L29.0026 42.4122L50.9511 32.8715L50.9937 32.853C54.7569 31.2169 56.9714 27.3855 56.5068 23.3042C56.2267 20.8442 55.0054 18.6405 53.068 17.099ZM26.7345 37.229C25.2684 37.883 23.5752 37.4909 22.532 36.269C21.9055 35.5354 21.6022 34.6016 21.6781 33.6399C21.7538 32.6782 22.1996 31.8035 22.9333 31.1772C23.2155 30.936 23.5248 30.7444 23.8501 30.603C24.933 30.1323 26.1941 30.2173 27.2279 30.8831L32.8921 34.5524L30.4919 37.6523L26.7345 37.229ZM50.8853 23.9442C51.0664 25.5344 50.2037 27.0273 48.7248 27.6699C48.7193 27.6723 48.7136 27.6748 48.708 27.6772L46.4669 30.708L42.5631 30.3484L43.7425 23.711C44.0277 22.13 45.2915 20.9457 46.8884 20.764C47.847 20.6549 48.7905 20.9257 49.5455 21.5261C50.3004 22.1269 50.7763 22.9856 50.8853 23.9442Z" fill="url(#paint2_linear_53_5254)"/>
<path d="M77.4496 71.5282L36.3183 89.4075C33.9341 90.4439 31.1512 89.3473 30.1148 86.9631L17.0158 56.8287C16.393 55.396 17.0496 53.7295 18.4824 53.1066L63.0729 33.7237C64.5056 33.1009 66.1721 33.7576 66.7949 35.1904L79.894 65.3248C80.9304 67.709 79.8338 70.4918 77.4496 71.5282Z" fill="url(#paint3_linear_53_5254)"/>
<path d="M63.0729 33.7237L40.7778 43.4151L56.8841 80.4678L77.4496 71.5282C79.8338 70.4918 80.9304 67.709 79.894 65.3248L66.7949 35.1904C66.1721 33.7576 64.5056 33.1009 63.0729 33.7237Z" fill="url(#paint4_linear_53_5254)"/>
<path d="M67.7952 37.8401L18.271 59.3677C15.8868 60.404 13.1039 59.3075 12.0675 56.9233L8.05308 47.6881C7.43028 46.2553 8.08693 44.5888 9.5197 43.966L62.5032 20.9348C63.936 20.3119 65.6025 20.9686 66.2253 22.4014L70.2397 31.6366C71.2759 34.0208 70.1796 36.8037 67.7952 37.8401Z" fill="url(#paint5_linear_53_5254)"/>
<path d="M64.0992 77.4087L43.1416 29.3656L28.0312 35.9572L48.9872 83.9965L64.0992 77.4087Z" fill="url(#paint6_linear_53_5254)"/>
</g>
<defs>
<linearGradient id="paint0_linear_53_5254" x1="26.6977" y1="7.37998" x2="63.407" y2="82.7056" gradientUnits="userSpaceOnUse">
<stop stop-color="#83EDA8"/>
<stop offset="1" stop-color="#00B48F"/>
</linearGradient>
<linearGradient id="paint1_linear_53_5254" x1="27.1744" y1="2.61254" x2="57.2094" y2="82.7055" gradientUnits="userSpaceOnUse">
<stop offset="0.0882519" stop-color="#FF8B8B"/>
<stop offset="1" stop-color="#E13F66"/>
</linearGradient>
<linearGradient id="paint2_linear_53_5254" x1="30.6549" y1="2.77225" x2="48.7388" y2="46.3851" gradientUnits="userSpaceOnUse">
<stop offset="0.228733" stop-color="#A0E6D8"/>
<stop offset="0.982322" stop-color="white"/>
</linearGradient>
<linearGradient id="paint3_linear_53_5254" x1="39.2658" y1="31.0161" x2="58.5324" y2="82.2092" gradientUnits="userSpaceOnUse">
<stop offset="0.167729" stop-color="#A0E6D8"/>
<stop offset="0.99356" stop-color="white"/>
</linearGradient>
<linearGradient id="paint4_linear_53_5254" x1="39.2658" y1="31.0161" x2="58.5324" y2="82.2092" gradientUnits="userSpaceOnUse">
<stop offset="0.167729" stop-color="#A0E6D8"/>
<stop offset="0.99356" stop-color="white"/>
</linearGradient>
<linearGradient id="paint5_linear_53_5254" x1="139.497" y1="-27.5381" x2="13.2571" y2="62.0046" gradientUnits="userSpaceOnUse">
<stop stop-color="#A0E6D8"/>
<stop offset="1" stop-color="white"/>
</linearGradient>
<linearGradient id="paint6_linear_53_5254" x1="35.7681" y1="32.5128" x2="66.3482" y2="72.5555" gradientUnits="userSpaceOnUse">
<stop offset="0.233791" stop-color="white" stop-opacity="0.64"/>
<stop offset="0.895759" stop-color="white"/>
</linearGradient>
</defs>
</svg>
